<?xml version="1.0" encoding="UTF-8"?><svg xmlns="http://www.w3.org/2000/svg" viewBox="0 0 495.87 496.88"><g id="Capa_1"><g id="WJWovG.tif"><path d="M13.92,219.71c-2.3-2.2-4.6-4.39-6.89-6.6-4.72-4.55-4.53-8.98,1.3-12.07,5.27-2.8,10.99-4.89,16.68-6.77,8.01-2.63,9.38-7.29,4.01-13.7-3.85-4.6-7.48-9.45-10.61-14.56-3.61-5.89-1.7-9.82,5.07-11.24,6.55-1.38,13.18-2.33,19.73-3.71,5.52-1.16,6.81-4.55,4.35-9.7-3.16-6.59-6.59-13.13-8.95-20.02-2-5.84,.35-8.47,6.62-8.61,7.36-.17,14.73-.11,22.09-.01,4.46,.06,6.3-2.19,5.39-6.3-1.15-5.2-2.76-10.3-4.19-15.44-.62-2.25-1.52-4.46-1.87-6.75-.99-6.54,2.31-10.12,8.81-9.25,5.29,.71,10.49,2.07,15.74,3.09,1.8,.35,3.63,.82,5.43,.8,4.86-.07,6.69-1.99,6.43-6.87-.3-5.68-1.05-11.34-1.3-17.02-.45-10.12,4.25-13.33,13.39-9.37,5.21,2.26,10.44,4.49,15.68,6.68,4.77,2,8.37,.2,9.22-4.85,1.03-6.1,1.83-12.24,2.64-18.38,1.18-8.94,5.55-10.99,12.91-6.08,5.42,3.62,10.89,7.17,16.42,10.63,4.84,3.04,8.32,1.33,9.94-4.08,2.01-6.72,4.36-13.35,6.89-19.89,1.79-4.63,7.7-5.21,11.68-1.3,4.3,4.22,8.52,8.52,12.71,12.85,5.91,6.11,10.47,5.02,13.89-2.48,2.61-5.72,6.16-11.11,9.91-16.19,2.87-3.9,8.54-3.08,11.48,1.27,3.65,5.4,7.14,10.9,10.57,16.45,2.9,4.69,6.75,5.14,10.47,.95,4.11-4.63,8.09-9.37,12.22-13.98,5.44-6.07,12.27-4.53,14.98,3.17,2,5.67,4.23,11.27,6.5,16.84,1.94,4.76,5.24,6.02,9.55,3.24,5.05-3.25,9.61-7.26,14.7-10.43,2.61-1.63,5.96-3.14,8.86-2.94,4.07,.28,5.08,4.2,5.68,7.86,.89,5.45,1.88,10.89,2.92,16.31,1.22,6.39,4.54,8.18,10.43,5.6,5.82-2.55,11.6-5.21,17.39-7.85,6.02-2.75,11.07-.36,11.63,6.15,.56,6.48,.34,13.03,.23,19.55-.12,7.26,2.25,9,9.11,6.97,5.45-1.61,11.01-2.85,16.58-4,8.86-1.82,12.39,1.54,10.95,10.56-.92,5.77-2.25,11.49-3.57,17.19-1.42,6.18,.79,8.74,7.23,8.39,6.83-.37,13.7-1.03,20.5-.68,5.79,.29,8.31,4.91,6.26,10.44-1.91,5.16-4.27,10.15-6.37,15.25-3.84,9.33-2.12,12.37,7.85,13.8,4.97,.71,9.98,1.16,14.93,1.97,7.24,1.19,9.5,6.88,5.42,12.91-3.65,5.4-7.33,10.8-10.6,16.43-2.76,4.75-1.7,7.38,3.43,9.33,5.62,2.14,11.3,4.12,17.04,5.9,7.54,2.35,9.31,8.89,3.62,14.52-4.04,4-8.31,7.78-12.54,11.57-5.16,4.63-4.76,8.85,1.16,12.2,5.38,3.04,10.75,6.12,16.02,9.35,5.87,3.59,5.45,10.49-.52,13.93-5.63,3.25-11.1,6.78-16.52,10.37-3.78,2.51-3.68,7.02,.22,10.7,4.5,4.26,9.14,8.35,13.75,12.5,5.81,5.23,4.86,10.81-2.22,13.51-6.24,2.38-12.43,4.92-18.64,7.39-4.02,1.6-5.03,5.41-2.27,9.46,3.77,5.52,7.69,10.94,11.62,16.35,4.48,6.15,2.52,11.41-4.91,12.77-6.26,1.15-12.54,2.16-18.81,3.21-6.02,1-7.53,3.89-4.88,9.48,2.51,5.29,5.1,10.53,7.57,15.84,4.2,9.02,1.38,13.45-8.47,13.36-5.69-.05-11.38-.24-17.07-.23-5.59,0-7.71,2.31-6.78,7.84,.75,4.44,2.11,8.78,3.21,13.16,.29,1.13,.73,2.23,.96,3.37,1.86,9.18-2.37,13.63-11.52,11.99-4.44-.8-8.84-1.85-13.25-2.87-8.96-2.07-11.31-.18-10.91,9.04,.23,5.35,.66,10.69,.92,16.04,.35,7.06-3.66,10.67-10.32,8.6-5.69-1.77-11.22-4.24-16.59-6.86-8.23-4.01-10.45-2.98-11.76,6.2-.8,5.63-1.59,11.27-2.36,16.91-1,7.35-5,9.64-11.52,6.01-4.94-2.75-9.68-5.98-14.14-9.47-6.86-5.36-10.94-4.42-13.62,3.58-2.01,6.02-4.1,12.01-6.18,18.01-1.62,4.68-7.84,5.7-12,1.77-4.5-4.25-8.84-8.68-13.15-13.11-5.76-5.92-9.47-5.15-13.19,2.32-2.82,5.66-6.06,11.15-9.51,16.46-2.36,3.62-9.48,3.09-12.21-.82-3.73-5.34-7.04-10.97-10.72-16.34-4.07-5.95-7.07-6.02-11.78-.54-3.27,3.81-6.55,7.61-9.74,11.49-2.56,3.11-5.39,5.72-9.78,4.76-4.08-.89-5.74-4.09-7.02-7.77-1.82-5.21-3.78-10.38-6.07-15.4-2.28-5.01-5.03-5.72-9.55-2.65-5.25,3.57-10.4,7.28-15.44,11.15-5.57,4.27-11.45,2.71-13.14-4.08-1.49-5.99-2.3-12.16-3.35-18.26-1.04-6.09-4.16-8.19-9.87-5.94-5.9,2.32-11.56,5.23-17.37,7.79-7.04,3.1-11.28,.68-11.5-6.9-.18-6.18,.37-12.37,.42-18.56,.05-6.15-3.42-8.75-9.4-7.22-5.84,1.49-11.62,3.19-17.5,4.48-8.32,1.82-11.52-1.16-10.16-9.51,1.02-6.27,2.5-12.47,3.76-18.7,1.12-5.56-1.12-8.29-6.86-8.06-6.35,.25-12.7,.98-19.05,.95-8.58-.04-11.22-5.37-7.21-13.06,2.62-5.02,4.76-10.32,6.73-15.64,1.92-5.21-.47-8.85-6.07-9.66-5.46-.8-10.97-1.28-16.44-2.08-8.82-1.29-11.24-5.92-6.75-13.7,2.58-4.46,6.07-8.39,9.15-12.55,4.89-6.6,3.58-11.02-4.15-13.67-4.74-1.62-9.76-2.61-14.26-4.73-2.9-1.37-6.63-3.97-7.15-6.59-.53-2.64,1.87-6.48,4-8.9,3.51-3.99,7.97-7.13,11.79-10.88,4.74-4.65,4.08-8.75-1.58-12-5.07-2.91-10.13-5.86-15.17-8.82-6.8-4-7.24-9.42-.93-14.29,2.89-2.23,6.25-3.84,9.38-5.76,1.99-1.22,4.12-2.28,5.89-3.76,6.27-5.24,6.23-7.71,.18-13.15-1.99-1.79-3.88-3.69-5.81-5.55-.06,.06-.11,.12-.17,.18ZM117.84,121.75c-18.27,18.46-31.08,40.36-39.8,64.69-6.66,18.58-9.84,37.86-9.96,57.57-.02,2.65,1.83,6.24,3.98,7.8,6.61,4.8,13.85,8.71,20.71,13.18,8.67,5.65,10,12.01,4.66,20.88-5,8.3-10.16,16.5-14.85,24.97-1.11,2.01-1.65,5.4-.72,7.3,4.82,9.88,9.48,19.97,15.56,29.07,9.94,14.87,20.66,29.24,35.2,40.22,15.79,11.93,31.89,23.19,50.9,29.66,3.4,1.16,5.88,1.39,8.82-.54,8.46-5.57,17-11.04,25.54-16.49,7.67-4.89,12.58-4.44,18.28,2.74,5.38,6.78,10.18,14.05,14.82,21.36,2.41,3.8,5.33,4.95,9.62,4.68,23.47-1.51,45.92-7.13,67.12-17.18,9.33-4.42,18.99-8.94,26.89-15.38,11.09-9.05,20.51-20.11,30.98-29.97,5.64-5.31,5.55-10.41,2.34-17.01-3.93-8.09-6.99-16.63-9.99-25.13-2.19-6.19,.52-13.07,5.4-15.11,12.79-5.33,25.65-10.5,38.37-16,1.75-.76,3.73-2.92,4.05-4.71,1.66-9.37,3.32-18.79,4.07-28.27,3.27-41.37-7.34-79.11-30.4-113.49-2.19-3.27-4.94-4.77-8.8-4.66-8.53,.23-17.07,.35-25.6,.57-11.05,.28-16.74-5.43-16.72-16.44,.01-8.53-.06-17.08-.74-25.57-.21-2.58-1.9-6.19-3.99-7.3-11.61-6.14-23.19-12.61-35.44-17.2-35.28-13.22-71.36-13.34-107.6-4.11-1.94,.49-4.18,2.65-4.94,4.56-4.96,12.56-9.44,25.31-14.31,37.91-2.38,6.15-8.71,9.14-15.1,7.12-9.08-2.86-18.2-5.72-27.02-9.27-6.05-2.43-10.87-2.56-15.11,2.99-1.81,2.38-4.12,4.38-6.2,6.56Z"/></g></g><g id="Capa_2"><polygon points="71.86 104.9 223.54 138.19 180.52 297.23 218.57 305.49 234.02 248.25 280.35 258.71 265.46 316.49 304.07 325.3 348.19 165.15 432.03 184.42 431.48 233.39 399.49 226.24 340.47 445.27 275.94 430.41 287.52 382.53 163.97 355.01 151.83 403.44 91.16 390.23 149.63 170.66 70.75 153.6 71.86 104.9"/></g></svg>